<svg width="10" height="18" viewBox="0 0 10 18" fill="none" xmlns="http://www.w3.org/2000/svg">
<path d="M8.72938 0.00363911L6.63183 0C4.27531 0 2.75244 1.68946 2.75244 4.30435V6.28893H0.643448C0.461206 6.28893 0.313629 6.44869 0.313629 6.64575V9.5212C0.313629 9.71825 0.461374 9.87782 0.643448 9.87782H2.75244V17.1335C2.75244 17.3305 2.90001 17.4901 3.08226 17.4901H5.83387C6.01612 17.4901 6.16369 17.3304 6.16369 17.1335V9.87782H8.62958C8.81183 9.87782 8.9594 9.71825 8.9594 9.5212L8.96042 6.64575C8.96042 6.55113 8.92559 6.46051 8.86382 6.39356C8.80206 6.3266 8.71794 6.28893 8.63043 6.28893H6.16369V4.60658C6.16369 3.79796 6.34189 3.38747 7.31603 3.38747L8.72904 3.38692C8.91111 3.38692 9.05869 3.22716 9.05869 3.03029V0.360272C9.05869 0.163578 8.91127 0.00400302 8.72938 0.00363911Z" fill="#D1D1D1"/>
</svg>
