<svg width="38" height="18" viewBox="0 0 38 18" fill="none" xmlns="http://www.w3.org/2000/svg">
<path fill-rule="evenodd" clip-rule="evenodd" d="M29.146 18C34.0359 18 38 13.9706 38 9C38 4.02944 34.0359 0 29.146 0C24.2561 0 20.292 4.02944 20.292 9C20.292 13.9706 24.2561 18 29.146 18ZM29.146 16C32.9493 16 36.0324 12.866 36.0324 9C36.0324 5.13401 32.9493 2 29.146 2C25.3427 2 22.2596 5.13401 22.2596 9C22.2596 12.866 25.3427 16 29.146 16Z" fill="white"/>
<path fill-rule="evenodd" clip-rule="evenodd" d="M8.85399 18C13.7439 18 17.708 13.9706 17.708 9C17.708 4.02944 13.7439 0 8.85399 0C3.96407 0 0 4.02944 0 9C0 13.9706 3.96407 18 8.85399 18ZM8.85399 16C12.6573 16 15.7404 12.866 15.7404 9C15.7404 5.13401 12.6573 2 8.85399 2C5.05071 2 1.96755 5.13401 1.96755 9C1.96755 12.866 5.05071 16 8.85399 16Z" fill="white"/>
<path d="M19.0853 4.85333C18.0111 4.85333 16.9816 5.04776 16.029 5.40391V7.57874C16.9499 7.11437 17.9876 6.85333 19.0853 6.85333C20.0267 6.85333 20.9241 7.04537 21.7415 7.39303V5.26536C20.9029 4.99766 20.0107 4.85333 19.0853 4.85333Z" fill="white"/>
</svg>
