<svg width="18" height="18" viewBox="0 0 18 18" fill="none" xmlns="http://www.w3.org/2000/svg">
<path fill-rule="evenodd" clip-rule="evenodd" d="M12.3372 0H5.88594C2.91728 0 0.509888 2.44752 0.509888 5.46566V12.0245C0.509888 15.0427 2.91728 17.4901 5.88594 17.4901H12.3372C15.3059 17.4901 17.7133 15.0427 17.7133 12.0245V5.46566C17.7133 2.44752 15.3059 0 12.3372 0ZM16.1004 12.0245C16.1004 14.1342 14.4124 15.8504 12.3372 15.8504H5.88594C3.81078 15.8504 2.12271 14.1342 2.12271 12.0245V5.46566C2.12271 3.35592 3.81078 1.6397 5.88594 1.6397H12.3372C14.4124 1.6397 16.1004 3.35592 16.1004 5.46566V12.0245ZM9.11158 4.37253C6.73644 4.37253 4.81074 6.33033 4.81074 8.74506C4.81074 11.1598 6.73644 13.1176 9.11158 13.1176C11.4867 13.1176 13.4124 11.1598 13.4124 8.74506C13.4124 6.33033 11.4867 4.37253 9.11158 4.37253ZM9.11158 11.4779C7.62994 11.4779 6.42356 10.2514 6.42356 8.74506C6.42356 7.23763 7.62994 6.01223 9.11158 6.01223C10.5932 6.01223 11.7996 7.23763 11.7996 8.74506C11.7996 10.2514 10.5932 11.4779 9.11158 11.4779ZM14.3081 4.04457C14.3081 4.36636 14.0515 4.62721 13.735 4.62721C13.4185 4.62721 13.1619 4.36636 13.1619 4.04457C13.1619 3.7228 13.4185 3.46194 13.735 3.46194C14.0515 3.46194 14.3081 3.7228 14.3081 4.04457Z" fill="#D1D1D1"/>
</svg>
