<svg width="35" height="35" viewBox="0 0 35 35" fill="none" xmlns="http://www.w3.org/2000/svg">
<path d="M17.5 35C27.165 35 35 27.165 35 17.5C35 7.83502 27.165 0 17.5 0C7.83502 0 0 7.83502 0 17.5C0 27.165 7.83502 35 17.5 35Z" fill="url(#paint0_linear)"/>
<path d="M26.1975 13.8925C26.1549 12.9611 26.007 12.325 25.7907 11.7685C25.5711 11.1847 25.2266 10.6558 24.7815 10.2187C24.3445 9.77353 23.8155 9.42893 23.2316 9.20916C22.675 8.993 22.0391 8.8452 21.1077 8.80287C20.1745 8.76015 19.8764 8.75 17.5001 8.75C15.1238 8.75 14.8256 8.76015 13.8925 8.80261C12.9611 8.8452 12.3251 8.99313 11.7685 9.20943C11.1847 9.42906 10.6558 9.77353 10.2187 10.2187C9.77353 10.6557 9.42893 11.1845 9.20916 11.7684C8.993 12.325 8.8452 12.9611 8.80287 13.8923C8.76015 14.8256 8.75 15.1236 8.75 17.4999C8.75 19.8764 8.76015 20.1745 8.80287 21.1077C8.84533 22.0389 8.99327 22.675 9.20956 23.2316C9.42919 23.8153 9.77366 24.3443 10.2188 24.7813C10.6558 25.2265 11.1848 25.5709 11.7687 25.7906C12.3251 26.007 12.9612 26.1548 13.8926 26.1974C14.8259 26.24 15.1239 26.25 17.5002 26.25C19.8765 26.25 20.1746 26.24 21.1078 26.1974C22.0392 26.1548 22.6751 26.007 23.2318 25.7906C24.4071 25.3361 25.3362 24.407 25.7907 23.2316C26.0071 22.675 26.1549 22.0389 26.1975 21.1077C26.24 20.1744 26.2501 19.8764 26.2501 17.5001C26.2501 15.1236 26.24 14.8256 26.1975 13.8925V13.8925ZM24.6224 21.036C24.5836 21.8891 24.441 22.3524 24.3212 22.6607C24.0268 23.4239 23.4237 24.027 22.6606 24.3214C22.3523 24.4411 21.889 24.5837 21.0358 24.6226C20.1134 24.6648 19.8366 24.6736 17.5001 24.6736C15.1634 24.6736 14.8868 24.6648 13.9642 24.6226C13.1111 24.5837 12.6478 24.4411 12.3394 24.3214C11.9594 24.181 11.6156 23.9574 11.3334 23.6667C11.0427 23.3845 10.8191 23.0408 10.6788 22.6607C10.559 22.3524 10.4164 21.8891 10.3776 21.036C10.3355 20.1134 10.3266 19.8366 10.3266 17.5002C10.3266 15.1637 10.3355 14.887 10.3776 13.9643C10.4165 13.1111 10.559 12.6478 10.6788 12.3396C10.8191 11.9594 11.0429 11.6156 11.3334 11.3334C11.6156 11.0427 11.9594 10.8191 12.3396 10.6789C12.6478 10.559 13.1111 10.4165 13.9643 10.3776C14.8869 10.3355 15.1637 10.3266 17.5001 10.3266H17.4999C19.8363 10.3266 20.1131 10.3355 21.0358 10.3777C21.889 10.4165 22.3522 10.5591 22.6606 10.6789C23.0406 10.8192 23.3844 11.0429 23.6666 11.3334C23.9573 11.6156 24.1809 11.9594 24.3211 12.3396C24.441 12.6478 24.5836 13.1111 24.6224 13.9643C24.6645 14.8869 24.6734 15.1637 24.6734 17.5001C24.6734 19.8366 24.6646 20.1132 24.6224 21.036Z" fill="white"/>
<path d="M17.4999 13.0068C15.0184 13.0068 13.0067 15.0186 13.0067 17.5002C13.0067 19.9817 15.0184 21.9934 17.4999 21.9934C19.9816 21.9934 21.9932 19.9817 21.9932 17.5002C21.9932 15.0186 19.9816 13.0068 17.4999 13.0068V13.0068ZM17.4999 20.4168C15.8892 20.4167 14.5833 19.1109 14.5834 17.5C14.5834 15.8893 15.8892 14.5834 17.5 14.5834C19.1109 14.5835 20.4167 15.8893 20.4167 17.5C20.4167 19.1109 19.1108 20.4168 17.4999 20.4168V20.4168Z" fill="white"/>
<path d="M23.2208 12.8294C23.2208 13.4093 22.7507 13.8794 22.1708 13.8794C21.5908 13.8794 21.1207 13.4093 21.1207 12.8294C21.1207 12.2494 21.5908 11.7793 22.1708 11.7793C22.7507 11.7793 23.2208 12.2494 23.2208 12.8294V12.8294Z" fill="white"/>
<defs>
<linearGradient id="paint0_linear" x1="2.93714" y1="32.0628" x2="32.0631" y2="2.9371" gradientUnits="userSpaceOnUse">
<stop stop-color="#FFD600"/>
<stop offset="0.5" stop-color="#FF0100"/>
<stop offset="1" stop-color="#D800B9"/>
</linearGradient>
</defs>
</svg>
