<svg width="17" height="25" viewBox="0 0 17 25" fill="none" xmlns="http://www.w3.org/2000/svg">
<path d="M15.1622 0H1.83784C0.824155 0 0 0.800781 0 1.78571V23.2143C0 24.1992 0.824155 25 1.83784 25H15.1622C16.1758 25 17 24.1992 17 23.2143V1.78571C17 0.800781 16.1758 0 15.1622 0ZM14.9324 22.9911H2.06757V2.00893H14.9324V22.9911ZM7.35135 20.1451C7.35135 20.4411 7.47237 20.725 7.68778 20.9343C7.9032 21.1436 8.19536 21.2612 8.5 21.2612C8.80464 21.2612 9.0968 21.1436 9.31222 20.9343C9.52763 20.725 9.64865 20.4411 9.64865 20.1451C9.64865 19.8491 9.52763 19.5652 9.31222 19.3559C9.0968 19.1466 8.80464 19.029 8.5 19.029C8.19536 19.029 7.9032 19.1466 7.68778 19.3559C7.47237 19.5652 7.35135 19.8491 7.35135 20.1451Z" fill="white"/>
</svg>
