<svg width="25" height="25" viewBox="0 0 25 25" fill="none" xmlns="http://www.w3.org/2000/svg">
<rect width="25" height="25" rx="12.5" fill="white"/>
<path d="M18.8175 18.8409L15.8593 15.623C16.6199 14.6773 17.0367 13.4874 17.0367 12.2487C17.0367 9.35463 14.7854 7 12.0183 7C9.25127 7 7 9.35463 7 12.2487C7 15.1429 9.25127 17.4975 12.0183 17.4975C13.0571 17.4975 14.0471 17.1698 14.8934 16.5477L17.8741 19.7901C17.9987 19.9254 18.1663 20 18.3458 20C18.5158 20 18.677 19.9322 18.7994 19.809C19.0595 19.5472 19.0678 19.1132 18.8175 18.8409ZM12.0183 8.36924C14.0636 8.36924 15.7276 10.1095 15.7276 12.2487C15.7276 14.388 14.0636 16.1283 12.0183 16.1283C9.97304 16.1283 8.30913 14.388 8.30913 12.2487C8.30913 10.1095 9.97304 8.36924 12.0183 8.36924Z" fill="#1489F8"/>
</svg>
