<svg width="58" height="58" viewBox="0 0 58 58" fill="none" xmlns="http://www.w3.org/2000/svg">
<path d="M28.9997 57.9993C45.0157 57.9993 57.9993 45.0157 57.9993 28.9997C57.9993 12.9836 45.0157 0 28.9997 0C12.9836 0 0 12.9836 0 28.9997C0 45.0157 12.9836 57.9993 28.9997 57.9993Z" fill="#00B2FF"/>
<path d="M58 29C58 28.2933 57.9733 27.5931 57.9237 26.8991L45.9047 14.8802L12.0952 28.1794L25.0309 41.1152L25.2006 41.726L25.4203 41.5045L25.4212 41.5054L25.2006 41.726L39.51 56.0353C50.3306 51.8258 58 41.3091 58 29Z" fill="#1B9DD6"/>
<path d="M26.1837 33.225L39.2893 43.1198L45.9048 14.8802L12.0952 28.1794L22.3831 31.587L41.1587 18.9928L26.1837 33.225Z" fill="white"/>
<path d="M22.3831 31.587L25.2007 41.7261L26.1836 33.225L41.1586 18.9928L22.3831 31.587Z" fill="#D2D2D7"/>
<path d="M30.443 36.4408L25.2007 41.7261L26.1836 33.225L30.443 36.4408Z" fill="#B9B9BE"/>
</svg>
