<svg width="22" height="15" viewBox="0 0 22 15" fill="none" xmlns="http://www.w3.org/2000/svg">
<path d="M21.4121 2.39662C21.1603 1.50482 20.4217 0.801815 19.4853 0.561679C17.7745 0.115967 10.9311 0.115967 10.9311 0.115967C10.9311 0.115967 4.08791 0.115967 2.37708 0.544781C1.45862 0.784662 0.702157 1.50494 0.450225 2.39662C0 4.02547 0 7.40351 0 7.40351C0 7.40351 0 10.7986 0.450225 12.4104C0.702425 13.3021 1.44061 14.0051 2.37723 14.2452C4.10592 14.6911 10.9313 14.6911 10.9313 14.6911C10.9313 14.6911 17.7745 14.6911 19.4853 14.2622C20.4219 14.0222 21.1603 13.3192 21.4124 12.4276C21.8625 10.7986 21.8625 7.42067 21.8625 7.42067C21.8625 7.42067 21.8806 4.02547 21.4121 2.39662ZM8.75229 10.5243V4.28277L14.4429 7.40351L8.75229 10.5243Z" fill="white"/>
</svg>
